<?xml version="1.0" standalone="no"?>
<!DOCTYPE svg PUBLIC "-//W3C//DTD SVG 20010904//EN"
 "http://www.w3.org/TR/2001/REC-SVG-20010904/DTD/svg10.dtd">
<svg version="1.0" xmlns="http://www.w3.org/2000/svg"
 width="271.000000pt" height="270.000000pt" viewBox="0 0 271.000000 270.000000"
 preserveAspectRatio="xMidYMid meet">

<g transform="translate(0.000000,270.000000) scale(0.100000,-0.100000)"
fill="#000000" stroke="none">
<path d="M1196 2690 c-512 -59 -953 -418 -1119 -913 -51 -150 -62 -227 -62
-427 0 -200 11 -277 62 -427 40 -121 85 -213 158 -323 194 -294 515 -506 873
-577 133 -26 396 -23 527 7 454 102 821 415 980 836 135 359 113 762 -61 1107
-78 155 -251 356 -399 465 -82 61 -251 149 -350 185 -169 60 -423 88 -609 67z
m394 -50 c0 -6 -7 -13 -15 -16 -12 -5 -8 -12 15 -34 37 -35 39 -72 5 -105 -28
-29 -70 -32 -103 -9 -29 20 -31 85 -2 114 11 11 25 20 30 20 6 0 20 9 32 20
24 22 38 26 38 10z m-276 -41 c31 -24 36 -81 9 -111 -26 -29 -87 -24 -112 8
-58 74 29 161 103 103z m86 -39 l0 -60 30 0 c20 0 30 -5 30 -15 0 -11 -12 -15
-50 -15 l-50 0 0 38 c0 63 12 112 26 112 10 0 14 -16 14 -60z m-230 -17 c6
-32 13 -63 15 -70 2 -6 -4 -14 -12 -18 -11 -4 -30 7 -55 32 l-39 38 7 -41 c4
-28 2 -44 -6 -49 -6 -4 -14 -5 -16 -2 -6 6 -33 115 -34 135 0 21 31 13 71 -19
21 -17 37 -25 35 -17 -17 53 -16 68 3 68 16 0 22 -11 31 -57z m565 23 c36 -15
46 -40 21 -49 -8 -3 -17 1 -20 9 -8 21 -54 17 -66 -6 -14 -27 4 -60 33 -60 22
1 22 1 3 15 -29 22 -7 40 31 28 22 -8 27 -15 25 -34 -5 -34 -31 -51 -67 -45
-88 17 -86 136 3 155 1 1 18 -6 37 -13z m-730 -36 c0 -10 -8 -14 -24 -12 -13
1 -30 -3 -37 -9 -20 -17 -17 -57 5 -69 26 -13 27 -13 50 11 18 19 41 19 41 0
0 -20 -43 -51 -71 -51 -37 0 -79 39 -79 75 0 39 43 77 83 73 20 -2 32 -8 32
-18z m830 -1 c7 -10 -32 -126 -44 -134 -4 -2 -13 0 -20 4 -9 6 -6 23 14 74 27
66 37 78 50 56z m-975 -43 c0 -8 -14 -19 -31 -26 -18 -8 -26 -17 -21 -22 5 -5
20 -4 36 3 19 9 30 9 37 2 8 -8 3 -16 -20 -27 -33 -17 -43 -42 -13 -33 59 19
62 19 62 5 0 -8 -20 -24 -44 -35 l-44 -22 -31 59 c-17 32 -31 62 -31 67 0 11
82 52 93 46 4 -2 7 -10 7 -17z m1103 -17 c9 -12 17 -25 17 -30 0 -15 -38 -10
-44 6 -9 24 -55 19 -65 -7 -12 -31 3 -56 36 -60 42 -5 41 -28 -1 -28 -72 0
-102 75 -50 127 20 20 31 24 57 19 18 -3 40 -16 50 -27z m-1228 -59 c-12 -14
-11 -21 15 -60 16 -24 27 -47 24 -52 -11 -18 -30 -6 -58 37 -22 36 -31 43 -42
34 -13 -11 -34 -5 -34 10 0 5 21 22 47 39 34 22 50 28 55 19 4 -6 1 -19 -7
-27z m1333 1 c11 -7 12 -19 2 -67 -6 -33 -14 -67 -16 -76 -6 -22 -34 -12 -34
13 0 20 -34 43 -53 36 -7 -2 -20 0 -30 5 -16 8 -11 15 40 53 62 46 70 50 91
36z m-438 -41 c107 -27 285 -112 370 -176 191 -144 326 -344 393 -582 18 -66
21 -103 21 -262 0 -157 -3 -196 -22 -262 -65 -236 -200 -437 -393 -582 -85
-65 -262 -149 -374 -178 -127 -32 -380 -33 -501 -1 -256 68 -458 207 -616 423
-68 93 -132 245 -170 400 -17 73 -17 326 1 405 58 258 195 477 393 628 150
114 285 171 498 211 14 2 90 3 170 1 107 -2 167 -9 230 -25z m599 -85 c37 -43
39 -78 6 -110 -32 -33 -63 -31 -108 6 l-37 31 47 53 c27 30 51 54 54 54 4 1
21 -15 38 -34z m-1614 0 c39 -38 33 -72 -22 -127 -26 -26 -55 -48 -63 -48 -17
0 -37 -30 -42 -64 -5 -35 -23 -22 -58 45 -28 56 -32 70 -21 82 11 14 20 13 82
-8 l70 -24 -31 39 c-17 22 -36 42 -41 45 -18 12 -8 32 28 58 47 33 67 34 98 2z
m1729 -119 c14 -19 26 -39 26 -45 0 -20 -24 -11 -46 16 -12 15 -23 22 -27 16
-4 -6 2 -22 13 -36 16 -21 17 -27 6 -36 -10 -9 -17 -6 -31 15 -12 19 -20 23
-28 15 -8 -8 -5 -17 11 -34 19 -20 20 -26 9 -35 -11 -9 -21 -3 -47 29 l-33 42
49 43 c27 24 54 43 60 44 7 0 23 -15 38 -34z m-1920 -107 c32 -25 34 -59 5
-105 -11 -19 -23 -34 -26 -34 -3 0 -32 16 -65 36 l-59 36 17 27 c39 63 82 76
128 40z m2012 -27 c15 -10 34 -47 34 -66 0 -28 -28 -17 -39 14 -15 43 -25 37
-17 -11 8 -47 -5 -69 -39 -69 -29 0 -55 30 -58 66 -1 20 3 29 16 32 12 3 17
-3 17 -21 0 -14 7 -31 16 -38 15 -12 16 -10 9 29 -10 58 21 91 61 64z m-2101
-103 c30 -17 55 -37 55 -45 0 -21 -16 -17 -80 17 -39 21 -57 36 -53 45 7 20
16 18 78 -17z m-70 -40 c4 -5 0 -18 -9 -28 -30 -33 -16 -47 15 -13 16 17 36
32 44 32 18 0 45 -28 45 -46 0 -23 -27 -71 -44 -77 -23 -9 -27 22 -5 44 11 11
17 25 13 31 -5 7 -15 2 -31 -16 -17 -20 -31 -26 -51 -24 -23 2 -28 8 -30 36
-5 46 35 91 53 61z m2256 -10 c10 -19 5 -28 -42 -75 l-54 -54 45 13 c25 8 55
17 68 21 34 11 38 -17 8 -60 -14 -21 -24 -39 -23 -41 2 -1 18 1 35 6 18 5 32
8 32 6 0 -2 3 -10 6 -18 3 -9 -3 -17 -18 -21 -13 -3 -45 -12 -71 -21 -42 -13
-49 -13 -54 0 -3 9 6 30 19 48 43 56 43 58 -1 42 l-40 -14 -11 35 c-7 19 -9
42 -6 50 8 20 -11 54 -29 54 -8 0 -15 2 -15 4 0 2 -3 11 -6 20 -5 12 5 16 48
19 29 2 63 4 75 5 14 1 27 -6 34 -19z m-2268 -129 c11 -16 21 -19 41 -14 20 5
26 2 26 -10 0 -9 -8 -19 -17 -22 -10 -3 -27 -9 -38 -14 -19 -7 -18 -9 7 -19
19 -7 26 -15 22 -26 -3 -8 -8 -15 -11 -15 -13 0 -119 33 -126 39 -8 8 9 68 26
89 15 19 54 14 70 -8z m-85 -147 c-2 -21 2 -38 9 -40 7 -3 13 9 15 29 2 21 8
33 18 33 11 0 14 -9 12 -37 -2 -21 1 -38 6 -38 12 0 22 24 22 51 0 11 7 19 16
19 14 0 16 -8 11 -51 -4 -29 -8 -53 -10 -55 -7 -7 -138 22 -138 31 -2 41 14
95 27 95 12 0 15 -9 12 -37z m2442 23 c0 -7 3 -34 6 -60 6 -38 4 -46 -10 -46
-9 0 -16 8 -16 18 0 17 -5 18 -56 9 -58 -10 -70 -7 -61 16 3 8 27 17 57 21 45
6 51 10 47 26 -4 17 4 27 26 29 4 1 7 -5 7 -13z m-2350 -193 c0 -17 -12 -25
-62 -42 -76 -26 -88 -26 -88 -3 0 14 14 22 53 32 l52 13 -47 21 c-36 16 -48
26 -48 43 0 21 1 21 70 -10 55 -25 70 -37 70 -54z m2368 50 c-2 -14 -17 -19
-61 -24 -32 -4 -60 -9 -63 -12 -3 -3 25 -15 61 -27 60 -20 66 -24 63 -47 -2
-20 -15 -30 -62 -49 -72 -29 -76 -29 -76 -4 0 11 5 20 10 20 13 0 13 53 1 66
-5 5 -12 26 -16 46 l-7 37 48 4 c107 8 106 8 102 -10z m-2368 -148 c0 -9 -9
-15 -22 -15 -13 0 -47 -3 -75 -6 -49 -6 -53 -5 -53 15 0 20 5 21 75 21 60 0
75 -3 75 -15z m0 -52 c0 -9 -16 -33 -35 -53 l-35 -35 40 3 c31 3 40 1 40 -12
0 -16 -14 -21 -91 -31 -39 -5 -48 -3 -54 12 -5 13 4 27 31 51 l37 32 -41 0
c-30 0 -42 4 -42 15 0 15 15 19 138 34 6 0 12 -7 12 -16z m2345 -8 c29 -28 33
-76 9 -99 -30 -30 -45 -15 -24 25 23 41 -34 81 -68 47 -15 -15 -16 -48 -2 -48
6 0 10 7 10 15 0 8 7 15 15 15 10 0 15 -11 15 -35 0 -32 -3 -35 -28 -35 -38 0
-52 17 -52 61 0 70 77 103 125 54z m-2333 -152 c44 -50 26 -101 -40 -121 -55
-17 -74 -15 -70 5 2 11 19 21 48 28 38 9 45 15 45 35 0 27 -19 31 -82 16 -29
-7 -33 -5 -33 13 0 15 10 22 43 29 62 14 72 14 89 -5z m2308 -3 c43 -43 6
-130 -55 -130 -35 0 -75 42 -75 78 0 63 85 97 130 52z m-366 -549 c3 -4 -6
-18 -19 -31 -32 -30 -21 -46 12 -20 36 28 55 9 24 -24 -30 -32 -8 -46 24 -16
16 15 25 18 30 10 5 -7 -7 -27 -29 -49 l-37 -36 -44 50 c-25 28 -45 55 -45 60
0 10 60 64 72 65 4 0 9 -4 12 -9z m-1629 -17 c18 -7 47 -58 38 -68 -13 -12
-31 -5 -36 14 -3 11 -13 20 -22 20 -15 0 -15 -2 -1 -22 20 -29 20 -62 0 -78
-22 -19 -65 -2 -84 33 -13 24 -13 29 0 37 10 6 19 1 32 -21 10 -17 23 -27 28
-24 6 4 4 14 -5 28 -36 51 -5 102 50 81z m1550 -90 c9 -10 14 -25 12 -35 -3
-12 4 -21 25 -30 28 -11 29 -14 13 -25 -12 -9 -25 -10 -42 -3 -38 14 -45 11
-28 -15 13 -19 13 -25 2 -34 -10 -9 -22 1 -55 43 -23 29 -42 57 -42 62 0 12
63 53 82 53 9 0 24 -7 33 -16z m-1427 -16 c6 -9 3 -35 -12 -85 -18 -62 -24
-70 -38 -62 -10 5 -15 15 -12 23 7 18 -21 39 -54 40 -42 2 -32 22 28 60 60 39
73 42 88 24z m1302 -52 c0 -7 -11 -18 -25 -24 -25 -12 -34 -32 -15 -32 6 0 21
7 34 16 38 24 46 -4 11 -32 -36 -28 -25 -44 14 -21 27 16 41 14 41 -5 0 -7
-73 -58 -84 -58 -2 0 -20 28 -40 62 -29 47 -34 63 -24 69 7 5 27 17 43 27 31
20 45 20 45 -2z m-1196 -16 c43 -26 51 -46 31 -76 -16 -25 -49 -31 -75 -14
-11 7 -19 4 -30 -10 -10 -13 -20 -17 -29 -11 -10 7 -6 21 20 70 19 33 37 61
41 61 4 0 22 -9 42 -20z m1094 -117 c-2 -56 -6 -68 -21 -71 -22 -4 -122 92
-112 107 11 20 32 11 64 -24 17 -19 32 -35 33 -35 2 0 1 23 -1 51 -2 36 1 54
10 60 22 13 30 -15 27 -88z m-974 56 c65 -28 56 -54 -11 -33 -33 9 -28 -10 7
-27 40 -19 27 -45 -15 -29 -40 15 -54 -4 -16 -20 29 -12 43 -40 21 -40 -16 0
-90 32 -90 39 0 7 52 131 55 131 1 0 24 -9 49 -21z m850 -92 c21 -58 22 -66 8
-72 -19 -7 -22 -2 -47 70 -16 48 -17 58 -5 65 18 11 16 15 44 -63z m-706 37
c28 -18 29 -58 2 -77 -16 -11 -19 -21 -14 -41 3 -14 2 -26 -2 -26 -18 0 -31
16 -38 43 -7 31 -26 37 -26 8 0 -24 -11 -32 -29 -22 -10 6 -9 20 5 67 9 32 19
63 21 67 6 11 51 0 81 -19z m637 -41 c-11 -94 -15 -104 -38 -101 -19 3 -97 99
-97 120 0 23 39 3 60 -31 28 -43 40 -37 40 20 0 39 6 49 28 49 12 0 13 -11 7
-57z m-516 21 c45 -9 42 -37 -4 -32 -23 3 -35 0 -35 -8 0 -7 12 -14 27 -16 17
-2 29 -10 31 -21 3 -16 -1 -17 -33 -11 -30 5 -37 4 -33 -7 2 -8 17 -15 31 -17
18 -2 27 -9 27 -21 0 -16 -5 -17 -42 -10 -24 4 -48 8 -54 9 -11 0 -9 19 12
118 5 23 19 26 73 16z m331 -18 c0 -7 -10 -16 -21 -19 -20 -5 -21 -10 -15 -61
7 -52 6 -56 -13 -56 -17 0 -20 7 -23 53 -3 45 -6 52 -25 55 -38 5 -27 30 15
35 75 8 82 7 82 -7z m-130 -11 c0 -10 -11 -15 -35 -15 -24 0 -35 -5 -35 -15 0
-10 11 -15 35 -15 24 0 35 -5 35 -15 0 -10 -11 -15 -35 -15 -44 0 -46 -18 -3
-22 23 -2 34 -9 36 -22 4 -17 -1 -18 -47 -14 -28 3 -54 7 -57 10 -2 3 -2 35 2
72 l7 66 48 0 c37 0 49 -4 49 -15z"/>
<path d="M1516 2564 c-24 -23 -20 -53 9 -66 19 -8 28 -8 40 2 21 18 19 57 -4
70 -25 13 -27 13 -45 -6z"/>
<path d="M1246 2577 c-38 -28 2 -96 42 -71 23 15 22 54 -4 70 -17 12 -23 12
-38 1z"/>
<path d="M2011 2356 c-9 -10 -8 -15 4 -20 8 -3 15 -4 15 -2 0 3 3 11 6 20 8
20 -9 21 -25 2z"/>
<path d="M1286 2314 c-9 -8 -16 -28 -16 -44 0 -36 23 -60 59 -60 54 0 82 68
43 103 -23 21 -66 22 -86 1z m74 -24 c23 -42 -30 -81 -60 -45 -10 12 -10 21
-2 40 14 30 47 33 62 5z"/>
<path d="M1420 2286 c0 -24 -3 -51 -6 -60 -4 -11 -1 -16 10 -16 9 0 16 8 16
20 0 28 18 25 32 -5 6 -14 17 -25 25 -25 11 0 11 4 3 21 -9 16 -8 24 5 39 32
36 2 69 -62 70 -20 0 -23 -5 -23 -44z m70 -2 c0 -8 -9 -14 -20 -14 -13 0 -20
7 -20 19 0 14 5 18 20 14 11 -3 20 -12 20 -19z"/>
<path d="M1171 2307 c-47 -24 -45 -87 4 -109 30 -13 75 2 75 27 0 19 -9 19
-30 0 -31 -28 -68 5 -54 47 4 13 14 19 32 18 43 -3 48 0 28 15 -24 18 -25 18
-55 2z"/>
<path d="M1541 2258 c-8 -36 -8 -55 -1 -62 8 -8 12 -4 17 12 4 17 12 22 32 20
36 -3 51 8 51 38 0 17 -8 27 -26 34 -50 19 -60 14 -73 -42z m69 6 c0 -8 -9
-14 -20 -14 -19 0 -27 19 -14 33 10 9 34 -4 34 -19z"/>
<path d="M1670 2250 c-54 -54 20 -143 77 -93 35 30 38 59 9 88 -30 30 -59 32
-86 5z m78 -42 c-4 -26 -30 -43 -52 -35 -21 8 -21 53 1 66 25 13 55 -5 51 -31z"/>
<path d="M987 2253 c-4 -3 -7 -35 -7 -69 0 -52 3 -62 15 -58 8 4 15 12 15 20
0 14 17 19 58 15 31 -3 28 7 -20 56 -43 44 -50 48 -61 36z m42 -46 c12 -15 5
-27 -16 -27 -7 0 -13 9 -13 20 0 23 13 26 29 7z"/>
<path d="M890 2205 c-7 -9 -9 -26 -5 -45 8 -35 3 -37 -35 -10 -23 17 -30 18
-39 6 -9 -11 -5 -24 16 -60 15 -25 34 -46 41 -46 16 0 15 5 -4 42 l-16 31 30
-22 c17 -11 33 -21 37 -21 4 0 4 19 0 43 l-6 42 22 -33 c36 -55 44 -21 8 37
-18 28 -33 51 -34 51 -2 0 -8 -7 -15 -15z"/>
<path d="M1796 2174 c-14 -26 -26 -50 -26 -55 0 -15 20 -10 26 6 10 25 24 17
24 -14 0 -16 6 -31 15 -35 11 -4 15 1 15 19 0 15 7 26 20 30 30 10 26 50 -9
74 -16 12 -31 21 -34 21 -3 0 -17 -21 -31 -46z m64 -10 c0 -8 -6 -14 -13 -14
-19 0 -27 10 -20 25 6 17 33 8 33 -11z"/>
<path d="M1907 2100 c-26 -17 -45 -35 -41 -41 3 -6 11 -8 18 -6 16 7 43 -15
47 -38 7 -34 24 -17 41 41 25 85 13 93 -65 44z m53 -7 c-1 -19 -19 -35 -30
-28 -10 6 -9 11 5 22 22 15 25 16 25 6z"/>
<path d="M734 2097 c-30 -27 -26 -42 23 -89 l28 -27 34 28 c39 32 27 51 -13
20 -26 -20 -26 -20 -26 -1 0 11 7 22 15 26 8 3 15 10 15 16 0 15 -26 12 -40
-5 -7 -8 -17 -12 -22 -9 -5 3 0 16 11 28 38 41 19 51 -25 13z"/>
<path d="M1343 2020 c-37 -71 -62 -97 -74 -79 -7 11 -9 11 -9 -3 0 -9 4 -18
10 -20 5 -1 -16 -47 -47 -101 -39 -68 -59 -94 -64 -85 -6 9 -9 3 -9 -17 l0
-30 220 3 220 3 -11 22 c-15 29 -201 351 -205 356 -1 2 -15 -20 -31 -49z"/>
<path d="M2025 2049 c5 -16 -1 -30 -25 -54 -43 -44 -24 -53 22 -10 24 24 38
31 46 23 6 -6 16 -7 22 -3 8 5 1 17 -22 36 -40 34 -52 36 -43 8z"/>
<path d="M646 2011 c-29 -30 -28 -64 0 -40 12 10 21 6 48 -20 45 -44 60 -22
17 23 -21 22 -29 38 -25 49 10 26 -9 20 -40 -12z"/>
<path d="M1160 2025 c0 -8 4 -15 10 -15 5 0 7 7 4 15 -4 8 -8 15 -10 15 -2 0
-4 -7 -4 -15z"/>
<path d="M1250 2008 c-12 -22 -12 -22 6 -6 10 10 15 20 12 24 -4 3 -12 -5 -18
-18z"/>
<path d="M1062 1979 c2 -7 12 -13 21 -15 23 -3 21 3 -4 17 -17 8 -20 8 -17 -2z"/>
<path d="M2070 1950 c-30 -26 -42 -42 -35 -48 7 -7 25 3 54 29 59 53 41 71
-19 19z"/>
<path d="M1224 1965 c-4 -8 -11 -12 -17 -8 -6 3 -7 1 -3 -5 10 -16 14 -15 26
8 6 11 8 20 5 20 -3 0 -8 -7 -11 -15z"/>
<path d="M1124 1946 c11 -9 24 -16 30 -16 12 0 7 5 -24 19 -24 11 -24 11 -6
-3z"/>
<path d="M580 1930 c-29 -29 -23 -64 11 -68 14 -2 31 4 39 12 16 20 30 20 30
1 0 -8 -9 -19 -21 -26 -16 -8 -18 -14 -9 -22 9 -9 17 -5 36 16 28 33 29 40 8
61 -20 21 -26 20 -58 -5 -21 -16 -26 -17 -26 -5 0 8 8 19 18 25 13 7 14 13 6
21 -9 9 -17 7 -34 -10z"/>
<path d="M1090 1930 c6 -11 13 -20 16 -20 2 0 0 9 -6 20 -6 11 -13 20 -16 20
-2 0 0 -9 6 -20z"/>
<path d="M2112 1899 c-38 -59 -36 -85 6 -75 89 22 104 28 94 38 -6 6 -22 6
-48 -1 -56 -16 -58 -14 -30 22 25 32 34 67 19 67 -5 0 -23 -23 -41 -51z"/>
<path d="M1020 1880 c35 -24 54 -31 30 -11 -14 11 -29 21 -35 21 -5 0 -3 -5 5
-10z"/>
<path d="M520 1841 c0 -12 96 -71 104 -64 13 13 5 22 -40 47 -50 28 -64 31
-64 17z"/>
<path d="M1085 1840 c3 -5 -8 -16 -25 -25 -16 -8 -30 -18 -30 -21 0 -4 41 16
68 34 11 7 10 10 -3 15 -9 4 -13 3 -10 -3z"/>
<path d="M2156 1788 c-20 -28 -20 -48 0 -76 12 -18 24 -22 52 -20 83 7 73 117
-10 118 -17 0 -33 -9 -42 -22z m78 -20 c14 -23 -3 -52 -32 -56 -32 -5 -49 34
-26 59 21 23 42 21 58 -3z"/>
<path d="M491 1774 c-25 -32 -26 -38 -5 -58 21 -21 26 -20 54 9 28 30 47 22
26 -11 -25 -36 -19 -50 9 -24 35 33 31 74 -7 78 -18 2 -31 -4 -42 -19 -20 -30
-33 -16 -16 16 19 35 6 41 -19 9z"/>
<path d="M1010 1778 c0 -5 26 -7 58 -7 61 1 55 6 -15 11 -24 2 -43 0 -43 -4z"/>
<path d="M1080 1724 c-12 -19 -20 -38 -16 -41 3 -4 6 -1 6 6 0 7 4 10 9 7 4
-3 17 1 27 10 18 14 18 15 -3 4 -27 -13 -28 -8 -7 25 9 14 14 25 11 25 -3 0
-15 -16 -27 -36z"/>
<path d="M1184 1596 c-3 -8 -4 -115 -2 -238 4 -241 10 -270 57 -286 37 -13 67
1 80 39 7 20 11 118 11 265 l0 234 -70 0 c-52 0 -72 -4 -76 -14z"/>
<path d="M1410 1594 c0 -14 3 -14 15 -4 8 7 15 14 15 16 0 2 -7 4 -15 4 -8 0
-15 -7 -15 -16z"/>
<path d="M1630 1595 c7 -9 15 -13 17 -11 7 7 -7 26 -19 26 -6 0 -6 -6 2 -15z"/>
<path d="M1064 1535 c-55 -92 -242 -414 -283 -487 l-32 -58 228 0 c207 1 226
2 201 16 -58 31 -63 54 -68 339 l-5 260 -41 -70z"/>
<path d="M1502 1540 c-22 -9 -42 -46 -42 -77 0 -24 58 -76 136 -121 78 -45 98
-68 114 -135 20 -76 -14 -155 -84 -198 l-31 -19 198 0 c108 0 197 3 197 7 0 3
-12 26 -26 51 -21 36 -24 46 -13 54 11 8 11 9 -2 5 -11 -4 -23 9 -40 41 -13
26 -26 49 -29 52 -3 3 -46 74 -95 158 -48 84 -92 155 -97 158 -5 3 -20 -2 -34
-11 -25 -16 -27 -16 -47 3 -24 21 -61 42 -74 41 -4 0 -18 -4 -31 -9z"/>
<path d="M1787 1403 c-13 -12 -7 -26 6 -15 6 5 21 12 32 15 16 4 15 5 -6 6
-14 0 -29 -2 -32 -6z"/>
<path d="M1901 1373 c16 -26 25 -29 35 -10 4 6 3 9 -1 4 -5 -4 -17 1 -28 10
-19 18 -19 17 -6 -4z"/>
<path d="M2019 1355 c23 -11 31 -20 27 -30 -3 -9 -2 -13 4 -10 6 3 10 -4 10
-17 0 -17 3 -19 9 -9 7 11 10 10 14 -5 4 -17 5 -17 6 2 0 12 -6 24 -14 28 -8
3 -15 12 -15 19 0 14 -40 37 -63 37 -7 -1 3 -7 22 -15z"/>
<path d="M1410 1253 c0 -82 4 -114 16 -131 57 -81 204 -57 204 34 0 56 -16 82
-72 113 -67 37 -97 56 -125 77 l-23 16 0 -109z"/>
<path d="M2061 1194 c0 -11 3 -14 6 -6 3 7 2 16 -1 19 -3 4 -6 -2 -5 -13z"/>
<path d="M2051 1144 c0 -11 3 -14 6 -6 3 7 2 16 -1 19 -3 4 -6 -2 -5 -13z"/>
<path d="M2041 1098 c-1 -11 -8 -15 -23 -12 -21 4 -21 4 -3 -5 23 -10 40 1 32
21 -4 9 -6 8 -6 -4z"/>
<path d="M1410 1000 c0 -5 10 -10 23 -10 18 0 19 2 7 10 -19 13 -30 13 -30 0z"/>
<path d="M940 850 c0 -52 3 -62 25 -76 34 -22 83 -10 96 24 13 34 7 104 -8
110 -9 2 -13 -10 -13 -40 0 -51 -18 -82 -46 -76 -16 3 -20 13 -22 61 -2 42 -7
57 -17 57 -12 0 -15 -14 -15 -60z"/>
<path d="M1140 895 c0 -8 9 -15 20 -15 18 0 20 -7 20 -60 0 -47 3 -60 15 -60
12 0 15 13 15 60 0 53 2 60 20 60 11 0 20 7 20 15 0 12 -13 15 -55 15 -42 0
-55 -3 -55 -15z"/>
<path d="M1320 835 l0 -75 50 0 c38 0 50 4 50 15 0 10 -11 15 -35 15 -24 0
-35 5 -35 15 0 10 11 15 35 15 24 0 35 5 35 15 0 10 -11 15 -35 15 -24 0 -35
5 -35 15 0 10 11 15 35 15 24 0 35 5 35 15 0 11 -12 15 -50 15 l-50 0 0 -75z"/>
<path d="M1509 892 c-29 -24 -20 -48 26 -68 19 -8 35 -19 35 -24 0 -13 -43
-13 -57 1 -12 12 -28 -5 -18 -20 9 -16 63 -23 84 -11 38 20 23 73 -23 81 -11
2 -21 10 -24 18 -4 11 2 13 26 8 37 -7 51 7 23 22 -28 16 -46 14 -72 -7z"/>
<path d="M1711 893 c-9 -17 -51 -124 -51 -130 0 -11 32 0 36 12 4 9 19 15 35
15 17 0 32 -6 35 -15 7 -16 34 -21 34 -6 0 5 -11 37 -24 72 -25 66 -47 84 -65
52z m39 -60 c0 -7 -9 -13 -20 -13 -17 0 -18 3 -8 25 8 19 14 22 20 13 4 -7 8
-19 8 -25z"/>
<path d="M2167 2242 c-21 -22 -24 -31 -15 -40 19 -19 56 -14 69 9 9 18 8 25
-8 40 -19 19 -19 19 -46 -9z"/>
<path d="M532 2258 c-7 -10 -4 -21 13 -40 29 -33 41 -35 55 -8 22 42 -38 84
-68 48z"/>
<path d="M450 2132 c0 -4 4 -13 9 -20 6 -10 10 -10 20 1 9 12 7 16 -9 20 -11
3 -20 2 -20 -1z"/>
<path d="M339 2024 c-11 -14 -10 -18 6 -31 44 -32 54 -34 65 -13 24 45 -38 83
-71 44z"/>
<path d="M2436 1845 c4 -8 10 -15 14 -15 4 0 13 7 20 15 11 13 8 15 -13 15
-19 0 -25 -4 -21 -15z"/>
<path d="M196 1714 c-4 -9 -4 -19 -2 -22 10 -9 36 8 36 23 0 20 -26 19 -34 -1z"/>
<path d="M2540 1376 c0 -9 6 -16 13 -16 16 0 46 20 30 20 -6 0 -18 3 -27 6
-11 4 -16 1 -16 -10z"/>
<path d="M2496 1094 c-19 -19 -20 -36 -4 -52 24 -24 78 -8 78 24 0 17 -28 44
-45 44 -7 0 -21 -7 -29 -16z"/>
<path d="M2075 430 c-11 -17 5 -32 21 -19 8 6 14 15 14 20 0 12 -27 11 -35 -1z"/>
<path d="M645 400 c-3 -5 -3 -15 1 -21 6 -11 23 6 24 24 0 10 -18 9 -25 -3z"/>
<path d="M775 341 c-3 -6 3 -15 14 -21 21 -11 37 2 26 20 -8 13 -32 13 -40 1z"/>
<path d="M1022 234 c2 -11 11 -20 22 -22 13 -3 17 1 14 14 -2 11 -11 20 -22
22 -13 3 -17 -1 -14 -14z"/>
</g>
</svg>
