<svg xmlns="http://www.w3.org/2000/svg" version="1.0" viewBox="0 0 271 270">
  <path d="M119.6 1C68.4 6.9 24.3 42.8 7.7 92.3c-5.1 15-6.2 22.7-6.2 42.7 0 20 1.1 27.7 6.2 42.7 4 12.1 8.5 21.3 15.8 32.3 19.4 29.4 51.5 50.6 87.3 57.7 13.3 2.6 39.6 2.3 52.7-.7 45.4-10.2 82.1-41.5 98-83.6 13.5-35.9 11.3-76.2-6.1-110.7-7.8-15.5-25.1-35.6-39.9-46.5-8.2-6.1-25.1-14.9-35-18.5-16.9-6-42.3-8.8-60.9-6.7zM159 6c0 .6-.7 1.3-1.5 1.6-1.2.5-.8 1.2 1.5 3.4 3.7 3.5 3.9 7.2.5 10.5-2.8 2.9-7 3.2-10.3.9-2.9-2-3.1-8.5-.2-11.4 1.1-1.1 2.5-2 3-2 .6 0 2-.9 3.2-2 2.4-2.2 3.8-2.6 3.8-1zm-27.6 4.1c3.1 2.4 3.6 8.1.9 11.1-2.6 2.9-8.7 2.4-11.2-.8-5.8-7.4 2.9-16.1 10.3-10.3zM140 14v6h3c2 0 3 .5 3 1.5 0 1.1-1.2 1.5-5 1.5h-5v-3.8c0-6.3 1.2-11.2 2.6-11.2 1 0 1.4 1.6 1.4 6zm-23 1.7c.6 3.2 1.3 6.3 1.5 7 .2.6-.4 1.4-1.2 1.8-1.1.4-3-.7-5.5-3.2l-3.9-3.8.7 4.1c.4 2.8.2 4.4-.6 4.9-.6.4-1.4.5-1.6.2-.6-.6-3.3-11.5-3.4-13.5 0-2.1 3.1-1.3 7.1 1.9 2.1 1.7 3.7 2.5 3.5 1.7-1.7-5.3-1.6-6.8.3-6.8 1.6 0 2.2 1.1 3.1 5.7zm56.5-2.3c3.6 1.5 4.6 4 2.1 4.9-.8.3-1.7-.1-2-.9-.8-2.1-5.4-1.7-6.6.6-1.4 2.7.4 6 3.3 6 2.2-.1 2.2-.1.3-1.5-2.9-2.2-.7-4 3.1-2.8 2.2.8 2.7 1.5 2.5 3.4-.5 3.4-3.1 5.1-6.7 4.5-8.8-1.7-8.6-13.6.3-15.5.1-.1 1.8.6 3.7 1.3zm-73 3.6c0 1-.8 1.4-2.4 1.2-1.3-.1-3 .3-3.7.9-2 1.7-1.7 5.7.5 6.9 2.6 1.3 2.7 1.3 5-1.1 1.8-1.9 4.1-1.9 4.1 0 0 2-4.3 5.1-7.1 5.1-3.7 0-7.9-3.9-7.9-7.5 0-3.9 4.3-7.7 8.3-7.3 2 .2 3.2.8 3.2 1.8zm83 .1c.7 1-3.2 12.6-4.4 13.4-.4.2-1.3 0-2-.4-.9-.6-.6-2.3 1.4-7.4 2.7-6.6 3.7-7.8 5-5.6zM86 21.4c0 .8-1.4 1.9-3.1 2.6-1.8.8-2.6 1.7-2.1 2.2.5.5 2 .4 3.6-.3 1.9-.9 3-.9 3.7-.2.8.8.3 1.6-2 2.7-3.3 1.7-4.3 4.2-1.3 3.3 5.9-1.9 6.2-1.9 6.2-.5 0 .8-2 2.4-4.4 3.5l-4.4 2.2-3.1-5.9c-1.7-3.2-3.1-6.2-3.1-6.7 0-1.1 8.2-5.2 9.3-4.6.4.2.7 1 .7 1.7zm110.3 1.7c.9 1.2 1.7 2.5 1.7 3 0 1.5-3.8 1-4.4-.6-.9-2.4-5.5-1.9-6.5.7-1.2 3.1.3 5.6 3.6 6 4.2.5 4.1 2.8-.1 2.8-7.2 0-10.2-7.5-5-12.7 2-2 3.1-2.4 5.7-1.9 1.8.3 4 1.6 5 2.7zM73.5 29c-1.2 1.4-1.1 2.1 1.5 6 1.6 2.4 2.7 4.7 2.4 5.2-1.1 1.8-3 .6-5.8-3.7-2.2-3.6-3.1-4.3-4.2-3.4-1.3 1.1-3.4.5-3.4-1 0-.5 2.1-2.2 4.7-3.9 3.4-2.2 5-2.8 5.5-1.9.4.6.1 1.9-.7 2.7zm133.3-.1c1.1.7 1.2 1.9.2 6.7-.6 3.3-1.4 6.7-1.6 7.6-.6 2.2-3.4 1.2-3.4-1.3 0-2-3.4-4.3-5.3-3.6-.7.2-2 0-3-.5-1.6-.8-1.1-1.5 4-5.3 6.2-4.6 7-5 9.1-3.6zM163 33c10.7 2.7 28.5 11.2 37 17.6 19.1 14.4 32.6 34.4 39.3 58.2 1.8 6.6 2.1 10.3 2.1 26.2 0 15.7-.3 19.6-2.2 26.2-6.5 23.6-20 43.7-39.3 58.2-8.5 6.5-26.2 14.9-37.4 17.8-12.7 3.2-38 3.3-50.1.1-25.6-6.8-45.8-20.7-61.6-42.3-6.8-9.3-13.2-24.5-17-40-1.7-7.3-1.7-32.6.1-40.5 5.8-25.8 19.5-47.7 39.3-62.8 15-11.4 28.5-17.1 49.8-21.1 1.4-.2 9-.3 17-.1 10.7.2 16.7.9 23 2.5zm59.9 8.5c3.7 4.3 3.9 7.8.6 11-3.2 3.3-6.3 3.1-10.8-.6l-3.7-3.1 4.7-5.3c2.7-3 5.1-5.4 5.4-5.4.4-.1 2.1 1.5 3.8 3.4zm-161.4 0c3.9 3.8 3.3 7.2-2.2 12.7-2.6 2.6-5.5 4.8-6.3 4.8-1.7 0-3.7 3-4.2 6.4-.5 3.5-2.3 2.2-5.8-4.5-2.8-5.6-3.2-7-2.1-8.2 1.1-1.4 2-1.3 8.2.8l7 2.4L53 52c-1.7-2.2-3.6-4.2-4.1-4.5-1.8-1.2-.8-3.2 2.8-5.8 4.7-3.3 6.7-3.4 9.8-.2zm172.9 11.9c1.4 1.9 2.6 3.9 2.6 4.5 0 2-2.4 1.1-4.6-1.6-1.2-1.5-2.3-2.2-2.7-1.6-.4.6.2 2.2 1.3 3.6 1.6 2.1 1.7 2.7.6 3.6-1 .9-1.7.6-3.1-1.5-1.2-1.9-2-2.3-2.8-1.5-.8.8-.5 1.7 1.1 3.4 1.9 2 2 2.6.9 3.5-1.1.9-2.1.3-4.7-2.9l-3.3-4.2 4.9-4.3c2.7-2.4 5.4-4.3 6-4.4.7 0 2.3 1.5 3.8 3.4zm-192 10.7c3.2 2.5 3.4 5.9.5 10.5-1.1 1.9-2.3 3.4-2.6 3.4-.3 0-3.2-1.6-6.5-3.6l-5.9-3.6 1.7-2.7c3.9-6.3 8.2-7.6 12.8-4zm201.2 2.7c1.5 1 3.4 4.7 3.4 6.6 0 2.8-2.8 1.7-3.9-1.4-1.5-4.3-2.5-3.7-1.7 1.1.8 4.7-.5 6.9-3.9 6.9-2.9 0-5.5-3-5.8-6.6-.1-2 .3-2.9 1.6-3.2 1.2-.3 1.7.3 1.7 2.1 0 1.4.7 3.1 1.6 3.8 1.5 1.2 1.6 1 .9-2.9-1-5.8 2.1-9.1 6.1-6.4zM33.5 77.1c3 1.7 5.5 3.7 5.5 4.5 0 2.1-1.6 1.7-8-1.7-3.9-2.1-5.7-3.6-5.3-4.5.7-2 1.6-1.8 7.8 1.7zm-7 4c.4.5 0 1.8-.9 2.8-3 3.3-1.6 4.7 1.5 1.3 1.6-1.7 3.6-3.2 4.4-3.2 1.8 0 4.5 2.8 4.5 4.6 0 2.3-2.7 7.1-4.4 7.7-2.3.9-2.7-2.2-.5-4.4 1.1-1.1 1.7-2.5 1.3-3.1-.5-.7-1.5-.2-3.1 1.6-1.7 2-3.1 2.6-5.1 2.4-2.3-.2-2.8-.8-3-3.6-.5-4.6 3.5-9.1 5.3-6.1zm225.6 1c1 1.9.5 2.8-4.2 7.5l-5.4 5.4 4.5-1.3c2.5-.8 5.5-1.7 6.8-2.1 3.4-1.1 3.8 1.7.8 6-1.4 2.1-2.4 3.9-2.3 4.1.2.1 1.8-.1 3.5-.6 1.8-.5 3.2-.8 3.2-.6 0 .2.3 1 .6 1.8.3.9-.3 1.7-1.8 2.1-1.3.3-4.5 1.2-7.1 2.1-4.2 1.3-4.9 1.3-5.4 0-.3-.9.6-3 1.9-4.8 4.3-5.6 4.3-5.8-.1-4.2l-4 1.4-1.1-3.5c-.7-1.9-.9-4.2-.6-5 .8-2-1.1-5.4-2.9-5.4-.8 0-1.5-.2-1.5-.4s-.3-1.1-.6-2c-.5-1.2.5-1.6 4.8-1.9 2.9-.2 6.3-.4 7.5-.5 1.4-.1 2.7.6 3.4 1.9zM25.3 95c1.1 1.6 2.1 1.9 4.1 1.4 2-.5 2.6-.2 2.6 1 0 .9-.8 1.9-1.7 2.2-1 .3-2.7.9-3.8 1.4-1.9.7-1.8.9.7 1.9 1.9.7 2.6 1.5 2.2 2.6-.3.8-.8 1.5-1.1 1.5-1.3 0-11.9-3.3-12.6-3.9-.8-.8.9-6.8 2.6-8.9 1.5-1.9 5.4-1.4 7 .8zm-8.5 14.7c-.2 2.1.2 3.8.9 4 .7.3 1.3-.9 1.5-2.9.2-2.1.8-3.3 1.8-3.3 1.1 0 1.4.9 1.2 3.7-.2 2.1.1 3.8.6 3.8 1.2 0 2.2-2.4 2.2-5.1 0-1.1.7-1.9 1.6-1.9 1.4 0 1.6.8 1.1 5.1-.4 2.9-.8 5.3-1 5.5-.7.7-13.8-2.2-13.8-3.1-.2-4.1 1.4-9.5 2.7-9.5 1.2 0 1.5.9 1.2 3.7zm244.2-2.3c0 .7.3 3.4.6 6 .6 3.8.4 4.6-1 4.6-.9 0-1.6-.8-1.6-1.8 0-1.7-.5-1.8-5.6-.9-5.8 1-7 .7-6.1-1.6.3-.8 2.7-1.7 5.7-2.1 4.5-.6 5.1-1 4.7-2.6-.4-1.7.4-2.7 2.6-2.9.4-.1.7.5.7 1.3zM26 126.7c0 1.7-1.2 2.5-6.2 4.2-7.6 2.6-8.8 2.6-8.8.3 0-1.4 1.4-2.2 5.3-3.2l5.2-1.3-4.7-2.1c-3.6-1.6-4.8-2.6-4.8-4.3 0-2.1.1-2.1 7 1 5.5 2.5 7 3.7 7 5.4zm236.8-5c-.2 1.4-1.7 1.9-6.1 2.4-3.2.4-6 .9-6.3 1.2-.3.3 2.5 1.5 6.1 2.7 6 2 6.6 2.4 6.3 4.7-.2 2-1.5 3-6.2 4.9-7.2 2.9-7.6 2.9-7.6.4 0-1.1.5-2 1-2 1.3 0 1.3-5.3.1-6.6-.5-.5-1.2-2.6-1.6-4.6l-.7-3.7 4.8-.4c10.7-.8 10.6-.8 10.2 1zM26 136.5c0 .9-.9 1.5-2.2 1.5-1.3 0-4.7.3-7.5.6-4.9.6-5.3.5-5.3-1.5s.5-2.1 7.5-2.1c6 0 7.5.3 7.5 1.5zm0 5.2c0 .9-1.6 3.3-3.5 5.3l-3.5 3.5 4-.3c3.1-.3 4-.1 4 1.2 0 1.6-1.4 2.1-9.1 3.1-3.9.5-4.8.3-5.4-1.2-.5-1.3.4-2.7 3.1-5.1l3.7-3.2h-4.1c-3 0-4.2-.4-4.2-1.5 0-1.5 1.5-1.9 13.8-3.4.6 0 1.2.7 1.2 1.6zm234.5.8c2.9 2.8 3.3 7.6.9 9.9-3 3-4.5 1.5-2.4-2.5 2.3-4.1-3.4-8.1-6.8-4.7-1.5 1.5-1.6 4.8-.2 4.8.6 0 1-.7 1-1.5s.7-1.5 1.5-1.5c1 0 1.5 1.1 1.5 3.5 0 3.2-.3 3.5-2.8 3.5-3.8 0-5.2-1.7-5.2-6.1 0-7 7.7-10.3 12.5-5.4zM27.2 157.7c4.4 5 2.6 10.1-4 12.1-5.5 1.7-7.4 1.5-7-.5.2-1.1 1.9-2.1 4.8-2.8 3.8-.9 4.5-1.5 4.5-3.5 0-2.7-1.9-3.1-8.2-1.6-2.9.7-3.3.5-3.3-1.3 0-1.5 1-2.2 4.3-2.9 6.2-1.4 7.2-1.4 8.9.5zm230.8.3c4.3 4.3.6 13-5.5 13-3.5 0-7.5-4.2-7.5-7.8 0-6.3 8.5-9.7 13-5.2zm-36.6 54.9c.3.4-.6 1.8-1.9 3.1-3.2 3-2.1 4.6 1.2 2 3.6-2.8 5.5-.9 2.4 2.4-3 3.2-.8 4.6 2.4 1.6 1.6-1.5 2.5-1.8 3-1 .5.7-.7 2.7-2.9 4.9l-3.7 3.6-4.4-5c-2.5-2.8-4.5-5.5-4.5-6 0-1 6-6.4 7.2-6.5.4 0 .9.4 1.2.9zm-162.9 1.7c1.8.7 4.7 5.8 3.8 6.8-1.3 1.2-3.1.5-3.6-1.4-.3-1.1-1.3-2-2.2-2-1.5 0-1.5.2-.1 2.2 2 2.9 2 6.2 0 7.8-2.2 1.9-6.5.2-8.4-3.3-1.3-2.4-1.3-2.9 0-3.7 1-.6 1.9-.1 3.2 2.1 1 1.7 2.3 2.7 2.8 2.4.6-.4.4-1.4-.5-2.8-3.6-5.1-.5-10.2 5-8.1zm155 9c.9 1 1.4 2.5 1.2 3.5-.3 1.2.4 2.1 2.5 3 2.8 1.1 2.9 1.4 1.3 2.5-1.2.9-2.5 1-4.2.3-3.8-1.4-4.5-1.1-2.8 1.5 1.3 1.9 1.3 2.5.2 3.4-1 .9-2.2-.1-5.5-4.3-2.3-2.9-4.2-5.7-4.2-6.2 0-1.2 6.3-5.3 8.2-5.3.9 0 2.4.7 3.3 1.6zm-142.7 1.6c.6.9.3 3.5-1.2 8.5-1.8 6.2-2.4 7-3.8 6.2-1-.5-1.5-1.5-1.2-2.3.7-1.8-2.1-3.9-5.4-4-4.2-.2-3.2-2.2 2.8-6 6-3.9 7.3-4.2 8.8-2.4zm130.2 5.2c0 .7-1.1 1.8-2.5 2.4-2.5 1.2-3.4 3.2-1.5 3.2.6 0 2.1-.7 3.4-1.6 3.8-2.4 4.6.4 1.1 3.2-3.6 2.8-2.5 4.4 1.4 2.1 2.7-1.6 4.1-1.4 4.1.5 0 .7-7.3 5.8-8.4 5.8-.2 0-2-2.8-4-6.2-2.9-4.7-3.4-6.3-2.4-6.9.7-.5 2.7-1.7 4.3-2.7 3.1-2 4.5-2 4.5.2zM81.4 232c4.3 2.6 5.1 4.6 3.1 7.6-1.6 2.5-4.9 3.1-7.5 1.4-1.1-.7-1.9-.4-3 1-1 1.3-2 1.7-2.9 1.1-1-.7-.6-2.1 2-7 1.9-3.3 3.7-6.1 4.1-6.1.4 0 2.2.9 4.2 2zm109.4 11.7c-.2 5.6-.6 6.8-2.1 7.1-2.2.4-12.2-9.2-11.2-10.7 1.1-2 3.2-1.1 6.4 2.4 1.7 1.9 3.2 3.5 3.3 3.5.2 0 .1-2.3-.1-5.1-.2-3.6.1-5.4 1-6 2.2-1.3 3 1.5 2.7 8.8zm-97.4-5.6c6.5 2.8 5.6 5.4-1.1 3.3-3.3-.9-2.8 1 .7 2.7 4 1.9 2.7 4.5-1.5 2.9-4-1.5-5.4.4-1.6 2 2.9 1.2 4.3 4 2.1 4-1.6 0-9-3.2-9-3.9 0-.7 5.2-13.1 5.5-13.1.1 0 2.4.9 4.9 2.1zm85 9.2c2.1 5.8 2.2 6.6.8 7.2-1.9.7-2.2.2-4.7-7-1.6-4.8-1.7-5.8-.5-6.5 1.8-1.1 1.6-1.5 4.4 6.3zm-70.6-3.7c2.8 1.8 2.9 5.8.2 7.7-1.6 1.1-1.9 2.1-1.4 4.1.3 1.4.2 2.6-.2 2.6-1.8 0-3.1-1.6-3.8-4.3-.7-3.1-2.6-3.7-2.6-.8 0 2.4-1.1 3.2-2.9 2.2-1-.6-.9-2 .5-6.7.9-3.2 1.9-6.3 2.1-6.7.6-1.1 5.1 0 8.1 1.9zm63.7 4.1c-1.1 9.4-1.5 10.4-3.8 10.1-1.9-.3-9.7-9.9-9.7-12 0-2.3 3.9-.3 6 3.1 2.8 4.3 4 3.7 4-2 0-3.9.6-4.9 2.8-4.9 1.2 0 1.3 1.1.7 5.7zm-51.6-2.1c4.5.9 4.2 3.7-.4 3.2-2.3-.3-3.5 0-3.5.8 0 .7 1.2 1.4 2.7 1.6 1.7.2 2.9 1 3.1 2.1.3 1.6-.1 1.7-3.3 1.1-3-.5-3.7-.4-3.3.7.2.8 1.7 1.5 3.1 1.7 1.8.2 2.7.9 2.7 2.1 0 1.6-.5 1.7-4.2 1l-5.4-.9c-1.1 0-.9-1.9 1.2-11.8.5-2.3 1.9-2.6 7.3-1.6zm33.1 1.8c0 .7-1 1.6-2.1 1.9-2 .5-2.1 1-1.5 6.1.7 5.2.6 5.6-1.3 5.6-1.7 0-2-.7-2.3-5.3-.3-4.5-.6-5.2-2.5-5.5-3.8-.5-2.7-3 1.5-3.5 7.5-.8 8.2-.7 8.2.7zm-13 1.1c0 1-1.1 1.5-3.5 1.5s-3.5.5-3.5 1.5 1.1 1.5 3.5 1.5 3.5.5 3.5 1.5-1.1 1.5-3.5 1.5c-4.4 0-4.6 1.8-.3 2.2 2.3.2 3.4.9 3.6 2.2.4 1.7-.1 1.8-4.7 1.4-2.8-.3-5.4-.7-5.7-1-.2-.3-.2-3.5.2-7.2l.7-6.6h4.8c3.7 0 4.9.4 4.9 1.5z"/>
  <path d="M151.6 13.6c-2.4 2.3-2 5.3.9 6.6 1.9.8 2.8.8 4-.2 2.1-1.8 1.9-5.7-.4-7-2.5-1.3-2.7-1.3-4.5.6zm-27-1.3c-3.8 2.8.2 9.6 4.2 7.1 2.3-1.5 2.2-5.4-.4-7-1.7-1.2-2.3-1.2-3.8-.1zm76.5 22.1c-.9 1-.8 1.5.4 2 .8.3 1.5.4 1.5.2 0-.3.3-1.1.6-2 .8-2-.9-2.1-2.5-.2zm-72.5 4.2c-.9.8-1.6 2.8-1.6 4.4 0 3.6 2.3 6 5.9 6 5.4 0 8.2-6.8 4.3-10.3-2.3-2.1-6.6-2.2-8.6-.1zM136 41c2.3 4.2-3 8.1-6 4.5-1-1.2-1-2.1-.2-4 1.4-3 4.7-3.3 6.2-.5zm6 .4c0 2.4-.3 5.1-.6 6-.4 1.1-.1 1.6 1 1.6.9 0 1.6-.8 1.6-2 0-2.8 1.8-2.5 3.2.5.6 1.4 1.7 2.5 2.5 2.5 1.1 0 1.1-.4.3-2.1-.9-1.6-.8-2.4.5-3.9 3.2-3.6.2-6.9-6.2-7-2 0-2.3.5-2.3 4.4zm7 .2c0 .8-.9 1.4-2 1.4-1.3 0-2-.7-2-1.9 0-1.4.5-1.8 2-1.4 1.1.3 2 1.2 2 1.9zm-31.9-2.3c-4.7 2.4-4.5 8.7.4 10.9 3 1.3 7.5-.2 7.5-2.7 0-1.9-.9-1.9-3 0-3.1 2.8-6.8-.5-5.4-4.7.4-1.3 1.4-1.9 3.2-1.8 4.3.3 4.8 0 2.8-1.5-2.4-1.8-2.5-1.8-5.5-.2zm37 4.9c-.8 3.6-.8 5.5-.1 6.2.8.8 1.2.4 1.7-1.2.4-1.7 1.2-2.2 3.2-2 3.6.3 5.1-.8 5.1-3.8 0-1.7-.8-2.7-2.6-3.4-5-1.9-6-1.4-7.3 4.2zm6.9-.6c0 .8-.9 1.4-2 1.4-1.9 0-2.7-1.9-1.4-3.3 1-.9 3.4.4 3.4 1.9zm6 1.4c-5.4 5.4 2 14.3 7.7 9.3 3.5-3 3.8-5.9.9-8.8-3-3-5.9-3.2-8.6-.5zm7.8 4.2c-.4 2.6-3 4.3-5.2 3.5-2.1-.8-2.1-5.3.1-6.6 2.5-1.3 5.5.5 5.1 3.1zm-76.1-4.5c-.4.3-.7 3.5-.7 6.9 0 5.2.3 6.2 1.5 5.8.8-.4 1.5-1.2 1.5-2 0-1.4 1.7-1.9 5.8-1.5 3.1.3 2.8-.7-2-5.6-4.3-4.4-5-4.8-6.1-3.6zm4.2 4.6c1.2 1.5.5 2.7-1.6 2.7-.7 0-1.3-.9-1.3-2 0-2.3 1.3-2.6 2.9-.7zm-13.9.2c-.7.9-.9 2.6-.5 4.5.8 3.5.3 3.7-3.5 1-2.3-1.7-3-1.8-3.9-.6-.9 1.1-.5 2.4 1.6 6 1.5 2.5 3.4 4.6 4.1 4.6 1.6 0 1.5-.5-.4-4.2l-1.6-3.1 3 2.2c1.7 1.1 3.3 2.1 3.7 2.1.4 0 .4-1.9 0-4.3l-.6-4.2 2.2 3.3c3.6 5.5 4.4 2.1.8-3.7-1.8-2.8-3.3-5.1-3.4-5.1-.2 0-.8.7-1.5 1.5zm90.6 3.1c-1.4 2.6-2.6 5-2.6 5.5 0 1.5 2 1 2.6-.6 1-2.5 2.4-1.7 2.4 1.4 0 1.6.6 3.1 1.5 3.5 1.1.4 1.5-.1 1.5-1.9 0-1.5.7-2.6 2-3 3-1 2.6-5-.9-7.4-1.6-1.2-3.1-2.1-3.4-2.1-.3 0-1.7 2.1-3.1 4.6zm6.4 1c0 .8-.6 1.4-1.3 1.4-1.9 0-2.7-1-2-2.5.6-1.7 3.3-.8 3.3 1.1zm4.7 6.4c-2.6 1.7-4.5 3.5-4.1 4.1.3.6 1.1.8 1.8.6 1.6-.7 4.3 1.5 4.7 3.8.7 3.4 2.4 1.7 4.1-4.1 2.5-8.5 1.3-9.3-6.5-4.4zm5.3.7c-.1 1.9-1.9 3.5-3 2.8-1-.6-.9-1.1.5-2.2 2.2-1.5 2.5-1.6 2.5-.6zm-122.6-.4c-3 2.7-2.6 4.2 2.3 8.9l2.8 2.7 3.4-2.8c3.9-3.2 2.7-5.1-1.3-2-2.6 2-2.6 2-2.6.1 0-1.1.7-2.2 1.5-2.6.8-.3 1.5-1 1.5-1.6 0-1.5-2.6-1.2-4 .5-.7.8-1.7 1.2-2.2.9-.5-.3 0-1.6 1.1-2.8 3.8-4.1 1.9-5.1-2.5-1.3zm60.9 7.7c-3.7 7.1-6.2 9.7-7.4 7.9-.7-1.1-.9-1.1-.9.3 0 .9.4 1.8 1 2 .5.1-1.6 4.7-4.7 10.1-3.9 6.8-5.9 9.4-6.4 8.5-.6-.9-.9-.3-.9 1.7v3l22-.3 22-.3-1.1-2.2c-1.5-2.9-20.1-35.1-20.5-35.6-.1-.2-1.5 2-3.1 4.9zm68.2-2.9c.5 1.6-.1 3-2.5 5.4-4.3 4.4-2.4 5.3 2.2 1 2.4-2.4 3.8-3.1 4.6-2.3.6.6 1.6.7 2.2.3.8-.5.1-1.7-2.2-3.6-4-3.4-5.2-3.6-4.3-.8zM64.6 68.9c-2.9 3-2.8 6.4 0 4 1.2-1 2.1-.6 4.8 2 4.5 4.4 6 2.2 1.7-2.3-2.1-2.2-2.9-3.8-2.5-4.9 1-2.6-.9-2-4 1.2zm51.4-1.4c0 .8.4 1.5 1 1.5.5 0 .7-.7.4-1.5-.4-.8-.8-1.5-1-1.5-.2 0-.4.7-.4 1.5zm9 1.7c-1.2 2.2-1.2 2.2.6.6 1-1 1.5-2 1.2-2.4-.4-.3-1.2.5-1.8 1.8zm-18.8 2.9c.2.7 1.2 1.3 2.1 1.5 2.3.3 2.1-.3-.4-1.7-1.7-.8-2-.8-1.7.2zM207 75c-3 2.6-4.2 4.2-3.5 4.8.7.7 2.5-.3 5.4-2.9 5.9-5.3 4.1-7.1-1.9-1.9zm-84.6-1.5c-.4.8-1.1 1.2-1.7.8-.6-.3-.7-.1-.3.5 1 1.6 1.4 1.5 2.6-.8.6-1.1.8-2 .5-2-.3 0-.8.7-1.1 1.5zm-10 1.9c1.1.9 2.4 1.6 3 1.6 1.2 0 .7-.5-2.4-1.9-2.4-1.1-2.4-1.1-.6.3zM58 77c-2.9 2.9-2.3 6.4 1.1 6.8 1.4.2 3.1-.4 3.9-1.2 1.6-2 3-2 3-.1 0 .8-.9 1.9-2.1 2.6-1.6.8-1.8 1.4-.9 2.2.9.9 1.7.5 3.6-1.6 2.8-3.3 2.9-4 .8-6.1-2-2.1-2.6-2-5.8.5-2.1 1.6-2.6 1.7-2.6.5 0-.8.8-1.9 1.8-2.5 1.3-.7 1.4-1.3.6-2.1-.9-.9-1.7-.7-3.4 1zm51 0c.6 1.1 1.3 2 1.6 2 .2 0 0-.9-.6-2s-1.3-2-1.6-2c-.2 0 0 .9.6 2zm102.2 3.1c-3.8 5.9-3.6 8.5.6 7.5 8.9-2.2 10.4-2.8 9.4-3.8-.6-.6-2.2-.6-4.8.1-5.6 1.6-5.8 1.4-3-2.2 2.5-3.2 3.4-6.7 1.9-6.7-.5 0-2.3 2.3-4.1 5.1zM102 82c3.5 2.4 5.4 3.1 3 1.1-1.4-1.1-2.9-2.1-3.5-2.1-.5 0-.3.5.5 1zm-50 3.9c0 1.2 9.6 7.1 10.4 6.4 1.3-1.3.5-2.2-4-4.7-5-2.8-6.4-3.1-6.4-1.7zm56.5.1c.3.5-.8 1.6-2.5 2.5-1.6.8-3 1.8-3 2.1 0 .4 4.1-1.6 6.8-3.4 1.1-.7 1-1-.3-1.5-.9-.4-1.3-.3-1 .3zm107.1 5.2c-2 2.8-2 4.8 0 7.6 1.2 1.8 2.4 2.2 5.2 2 8.3-.7 7.3-11.7-1-11.8-1.7 0-3.3.9-4.2 2.2zm7.8 2c1.4 2.3-.3 5.2-3.2 5.6-3.2.5-4.9-3.4-2.6-5.9 2.1-2.3 4.2-2.1 5.8.3zm-174.3-.6c-2.5 3.2-2.6 3.8-.5 5.8 2.1 2.1 2.6 2 5.4-.9 2.8-3 4.7-2.2 2.6 1.1-2.5 3.6-1.9 5 .9 2.4 3.5-3.3 3.1-7.4-.7-7.8-1.8-.2-3.1.4-4.2 1.9-2 3-3.3 1.6-1.6-1.6 1.9-3.5.6-4.1-1.9-.9zm51.9-.4c0 .5 2.6.7 5.8.7 6.1-.1 5.5-.6-1.5-1.1-2.4-.2-4.3 0-4.3.4zm7 5.4c-1.2 1.9-2 3.8-1.6 4.1.3.4.6.1.6-.6s.4-1 .9-.7c.4.3 1.7-.1 2.7-1 1.8-1.4 1.8-1.5-.3-.4-2.7 1.3-2.8.8-.7-2.5.9-1.4 1.4-2.5 1.1-2.5-.3 0-1.5 1.6-2.7 3.6zm10.4 12.8c-.3.8-.4 11.5-.2 23.8.4 24.1 1 27 5.7 28.6 3.7 1.3 6.7-.1 8-3.9.7-2 1.1-11.8 1.1-26.5V109h-7c-5.2 0-7.2.4-7.6 1.4zm22.6.2c0 1.4.3 1.4 1.5.4.8-.7 1.5-1.4 1.5-1.6 0-.2-.7-.4-1.5-.4s-1.5.7-1.5 1.6zm22-.1c.7.9 1.5 1.3 1.7 1.1.7-.7-.7-2.6-1.9-2.6-.6 0-.6.6.2 1.5zm-56.6 6c-5.5 9.2-24.2 41.4-28.3 48.7l-3.2 5.8h22.8c20.7-.1 22.6-.2 20.1-1.6-5.8-3.1-6.3-5.4-6.8-33.9l-.5-26-4.1 7zm43.8-.5c-2.2.9-4.2 4.6-4.2 7.7 0 2.4 5.8 7.6 13.6 12.1s9.8 6.8 11.4 13.5c2 7.6-1.4 15.5-8.4 19.8l-3.1 1.9h19.8c10.8 0 19.7-.3 19.7-.7 0-.3-1.2-2.6-2.6-5.1-2.1-3.6-2.4-4.6-1.3-5.4 1.1-.8 1.1-.9-.2-.5-1.1.4-2.3-.9-4-4.1-1.3-2.6-2.6-4.9-2.9-5.2-.3-.3-4.6-7.4-9.5-15.8-4.8-8.4-9.2-15.5-9.7-15.8-.5-.3-2 .2-3.4 1.1-2.5 1.6-2.7 1.6-4.7-.3-2.4-2.1-6.1-4.2-7.4-4.1-.4 0-1.8.4-3.1.9z"/>
  <path d="M178.7 129.7c-1.3 1.2-.7 2.6.6 1.5.6-.5 2.1-1.2 3.2-1.5 1.6-.4 1.5-.5-.6-.6-1.4 0-2.9.2-3.2.6zm11.4 3c1.6 2.6 2.5 2.9 3.5 1 .4-.6.3-.9-.1-.4-.5.4-1.7-.1-2.8-1-1.9-1.8-1.9-1.7-.6.4zm11.8 1.8c2.3 1.1 3.1 2 2.7 3-.3.9-.2 1.3.4 1 .6-.3 1 .4 1 1.7 0 1.7.3 1.9.9.9.7-1.1 1-1 1.4.5.4 1.7.5 1.7.6-.2 0-1.2-.6-2.4-1.4-2.8-.8-.3-1.5-1.2-1.5-1.9 0-1.4-4-3.7-6.3-3.7-.7.1.3.7 2.2 1.5zM141 144.7c0 8.2.4 11.4 1.6 13.1 5.7 8.1 20.4 5.7 20.4-3.4 0-5.6-1.6-8.2-7.2-11.3-6.7-3.7-9.7-5.6-12.5-7.7l-2.3-1.6v10.9zm65.1 5.9c0 1.1.3 1.4.6.6.3-.7.2-1.6-.1-1.9-.3-.4-.6.2-.5 1.3zm-1 5c0 1.1.3 1.4.6.6.3-.7.2-1.6-.1-1.9-.3-.4-.6.2-.5 1.3zm-1 4.6c-.1 1.1-.8 1.5-2.3 1.2-2.1-.4-2.1-.4-.3.5 2.3 1 4-.1 3.2-2.1-.4-.9-.6-.8-.6.4zM141 170c0 .5 1 1 2.3 1 1.8 0 1.9-.2.7-1-1.9-1.3-3-1.3-3 0zm-47 15c0 5.2.3 6.2 2.5 7.6 3.4 2.2 8.3 1 9.6-2.4 1.3-3.4.7-10.4-.8-11-.9-.2-1.3 1-1.3 4 0 5.1-1.8 8.2-4.6 7.6-1.6-.3-2-1.3-2.2-6.1-.2-4.2-.7-5.7-1.7-5.7-1.2 0-1.5 1.4-1.5 6zm20-4.5c0 .8.9 1.5 2 1.5 1.8 0 2 .7 2 6 0 4.7.3 6 1.5 6s1.5-1.3 1.5-6c0-5.3.2-6 2-6 1.1 0 2-.7 2-1.5 0-1.2-1.3-1.5-5.5-1.5s-5.5.3-5.5 1.5zm18 6v7.5h5c3.8 0 5-.4 5-1.5 0-1-1.1-1.5-3.5-1.5s-3.5-.5-3.5-1.5 1.1-1.5 3.5-1.5 3.5-.5 3.5-1.5-1.1-1.5-3.5-1.5-3.5-.5-3.5-1.5 1.1-1.5 3.5-1.5 3.5-.5 3.5-1.5c0-1.1-1.2-1.5-5-1.5h-5v7.5zm18.9-5.7c-2.9 2.4-2 4.8 2.6 6.8 1.9.8 3.5 1.9 3.5 2.4 0 1.3-4.3 1.3-5.7-.1-1.2-1.2-2.8.5-1.8 2 .9 1.6 6.3 2.3 8.4 1.1 3.8-2 2.3-7.3-2.3-8.1-1.1-.2-2.1-1-2.4-1.8-.4-1.1.2-1.3 2.6-.8 3.7.7 5.1-.7 2.3-2.2-2.8-1.6-4.6-1.4-7.2.7zm20.2-.1c-.9 1.7-5.1 12.4-5.1 13 0 1.1 3.2 0 3.6-1.2.4-.9 1.9-1.5 3.5-1.5 1.7 0 3.2.6 3.5 1.5.7 1.6 3.4 2.1 3.4.6 0-.5-1.1-3.7-2.4-7.2-2.5-6.6-4.7-8.4-6.5-5.2zm3.9 6c0 .7-.9 1.3-2 1.3-1.7 0-1.8-.3-.8-2.5.8-1.9 1.4-2.2 2-1.3.4.7.8 1.9.8 2.5zm41.7-140.9c-2.1 2.2-2.4 3.1-1.5 4 1.9 1.9 5.6 1.4 6.9-.9.9-1.8.8-2.5-.8-4-1.9-1.9-1.9-1.9-4.6.9zM53.2 44.2c-.7 1-.4 2.1 1.3 4 2.9 3.3 4.1 3.5 5.5.8 2.2-4.2-3.8-8.4-6.8-4.8zM45 56.8c0 .4.4 1.3.9 2 .6 1 1 1 2-.1.9-1.2.7-1.6-.9-2-1.1-.3-2-.2-2 .1zM33.9 67.6c-1.1 1.4-1 1.8.6 3.1 4.4 3.2 5.4 3.4 6.5 1.3 2.4-4.5-3.8-8.3-7.1-4.4zm209.7 17.9c.4.8 1 1.5 1.4 1.5.4 0 1.3-.7 2-1.5 1.1-1.3.8-1.5-1.3-1.5-1.9 0-2.5.4-2.1 1.5zm-224 13.1c-.4.9-.4 1.9-.2 2.2 1 .9 3.6-.8 3.6-2.3 0-2-2.6-1.9-3.4.1zM254 132.4c0 .9.6 1.6 1.3 1.6 1.6 0 4.6-2 3-2-.6 0-1.8-.3-2.7-.6-1.1-.4-1.6-.1-1.6 1zm-4.4 28.2c-1.9 1.9-2 3.6-.4 5.2 2.4 2.4 7.8.8 7.8-2.4 0-1.7-2.8-4.4-4.5-4.4-.7 0-2.1.7-2.9 1.6zM207.5 227c-1.1 1.7.5 3.2 2.1 1.9.8-.6 1.4-1.5 1.4-2 0-1.2-2.7-1.1-3.5.1zm-143 3c-.3.5-.3 1.5.1 2.1.6 1.1 2.3-.6 2.4-2.4 0-1-1.8-.9-2.5.3zm13 5.9c-.3.6.3 1.5 1.4 2.1 2.1 1.1 3.7-.2 2.6-2-.8-1.3-3.2-1.3-4-.1zm24.7 10.7c.2 1.1 1.1 2 2.2 2.2 1.3.3 1.7-.1 1.4-1.4-.2-1.1-1.1-2-2.2-2.2-1.3-.3-1.7.1-1.4 1.4z"/>
</svg>
